<svg role="img" viewBox="0 0 24 24" xmlns="http://www.w3.org/2000/svg"><title>HubSpot</title><path d="M12.008 0A12.01 12.01 0 0 0 0 12.008a12.01 12.01 0 0 0 12.008 12.01A12.013 12.013 0 0 0 24 12.005 12.01 12.01 0 0 0 12.008 0zm5.11 17.335a.47.47 0 0 1-.47.461h-2.99a.47.47 0 0 1-.47-.461V13.31a.465.465 0 0 1 .47-.46h-1.637v-1.398h1.64a.46.46 0 0 1 .467.461v3.916h1.086c.03 0 .054.004.08.01v-3.926a.465.465 0 0 1 .468-.46h1.564v1.398h-1.564a.465.465 0 0 1-.468.46v4.025zm-7.957.085a.41.41 0 0 1-.41-.407V7.125a.41.41 0 0 1 .41-.408h2.946a.41.41 0 0 1 .41.408v2.793c.19-.19.467-.384.73-.553a3.522 3.522 0 0 1 1.76-.484c.834 0 1.545.28 2.13.84s.88 1.34.88 2.34v4.45a.41.41 0 0 1-.41.407h-2.94a.41.41 0 0 1-.41-.408V13.3c0-.62-.16-1.07-.48-1.35-.32-.28-.82-.42-1.5-.42-.51 0-.96.09-1.35.27-.39.18-.7.43-.93.75v5.17a.41.41 0 0 1-.41.407H9.16z" fill="#FF7A59"/></svg>
