<svg xmlns="http://www.w3.org/2000/svg" viewBox="0 0 24 24"><title>Oracle NetSuite</title><path d="M17.802 2.388c-.288 0-.558.072-.81.216l-9.162 5.04c-.252.126-.45.342-.54.612l-1.998 5.796c-.09.27-.09.558.018.828.108.27.306.486.558.612l9.18 5.058c.252.144.54.216.81.216.288 0 .558-.072.81-.216l9.162-5.04c.252-.126.45-.342.54-.612l1.998-5.796c.09-.27.09-.558-.018-.828a1.11 1.11 0 00-.558-.612l-9.18-5.058c-.252-.144-.522-.216-.81-.216zm-5.778 15.03v-4.5h-4.05v-1.62h4.05v-2.88h1.728v2.88h4.05v1.62h-4.05v4.5zm5.778-15.03c.126 0 .252.018.378.072l9.18 5.058c.108.054.198.144.252.252l1.998 5.796c.054.126.054.252 0 .378s-.144.216-.252.252l-9.162 5.04c-.126.072-.252.09-.378.09s-.252-.018-.378-.072L3.438 14.58c-.108-.054-.198-.144-.252-.252L1.188 8.532c-.054-.126-.054-.252 0-.378.054-.108.144-.198.252-.252l9.162-5.04c.126-.072.252-.09.378-.09z" fill="#0567A8"/></svg>
