<svg role="img" viewBox="0 0 24 24" xmlns="http://www.w3.org/2000/svg"><title>Salesforce</title><path d="M7.34 16.03a.56.56 0 0 0 .55.51h1.96c.26 0 .5-.1.68-.28a.86.86 0 0 0 .34-.65c0-.4-.19-.7-.56-..9-.38-.2-.86-.3-1.44-.3h-.5v-.9h.43c.5 0 .93-.1 1.3-.3a.9.9 0 0 0 .56-.84c0-.35-.14-.61-.41-.79-.28-.18-.63-.26-1.04-.26h-1.7c-.3 0-.54.2-.67.48a.8.8 0 0 0-.2.6v3.24zm3.6-5.2c.4-.4.88-.6 1.44-.6.56 0 1.04.2 1.44.6.4.4.6.88.6 1.44s-.2 1.04-.6 1.44c-.4.4-.88.6-1.44.6-.56 0-1.04-.2-1.44-.6a2 2 0 0 1-.6-1.44c0-.56.2-1.04.6-1.44zm3.93 5.2v-5c0-.36.1-.64.3-.84.2-.2.48-.3.8-.3s.6.1.8.3c.2.2.3.48.3.84v5c0 .36-.1.64-.3.84a.8.8 0 0 1-.8.3c-.32 0-.6-.1-.8-.3a1.1 1.1 0 0 1-.3-.84zm5.55-5.38c-.3-.26-.68-.4-1.12-.4-.48 0-.88.16-1.2.48-.32.32-.48.7-.48 1.14v3.9c0 .36-.1.64-.3.84a.8.8 0 0 1-.8.3c-.32 0-.6-.1-.8-.3a1.1 1.1 0 0 1-.3-.84V9.8c0-1.1-..38-2-1.14-2.65-.76-.66-1.77-1-3.02-1C11.58 6.15 10 7.33 10 9.42v.07c0 .82.3 1.54.9 2.15.6.6 1.38.92 2.33.92.55 0 1.04-.15 1.48-.44.44-.3.66-.74.66-1.33v-.53h-1.9c-1.1 0-1.92.37-2.47 1.1-.55.74-.82 1.7-.82 2.9s.4 2.2 1.2 2.98c.8.77 1.83 1.16 3.08 1.16 1.2 0 2.2-.35 3-1.06.8-.7.1.2-1.7.1.2-3.03.38-4.32 1.08-5.2zM11.9.04C5.33.04 0 5.37 0 12s5.33 11.96 11.9 11.96S24 18.63 24 12C24 5.37 18.67.04 11.9.04z" fill="#00A1E0"/></svg>
